<svg width="200" height="200" viewBox="0 0 200 200" fill="none" xmlns="http://www.w3.org/2000/svg">
<rect width="200" height="200" fill="white"/>
<g clip-path="url(#clip0)">
<path d="M167.718 66.8167L100.359 44L33.006 66.8167H33V77.226C33 81.0432 36.0743 84.1327 39.8727 84.1327H52.6241V140.958H51.5379C49.8075 140.958 48.3838 142.334 48.3102 144.073H43.045C41.3391 144.073 39.9588 145.466 39.9588 147.181V155H160.766V147.181C160.766 145.466 159.385 144.073 157.679 144.073H152.413C152.34 142.334 150.916 140.958 149.186 140.958H148.1V84.1327H160.851C164.649 84.1327 167.724 81.0432 167.724 77.226V66.8167H167.718ZM70.7021 140.958H69.6159V84.1327H91.5531V140.958H90.473C88.7425 140.958 87.3189 142.334 87.2452 144.073H73.9298C73.8562 142.334 72.4319 140.958 70.6953 140.958H70.7021ZM131.108 140.958H130.028C128.292 140.958 126.868 142.334 126.795 144.073H112.865C112.791 142.334 111.368 140.958 109.631 140.958H108.551V84.1327H131.108V140.958Z" fill="#A0A0A0"/>
</g>
<defs>
<clipPath id="clip0">
<rect width="135" height="111" fill="white" transform="translate(33 39)"/>
</clipPath>
</defs>
</svg>
