<svg xmlns="http://www.w3.org/2000/svg" width="17" height="17" viewBox="0 0 17 17">
    <g fill="none" fill-rule="evenodd">
        <g fill="#505050" fill-rule="nonzero">
            <path d="M415.509 549c-3.08 0-5.651 2.906-5.65 6.16.001 2.086 1.061 4.03 2.633 5.156-2.538.853-4.316 2.748-5.492 4.84l1.473.844c1.419-2.523 3.45-4.452 7.036-4.452 3.585 0 5.61 1.93 7.026 4.452l1.465-.845c-1.174-2.091-2.947-3.986-5.484-4.84 1.572-1.122 2.632-3.059 2.633-5.147.002-3.254-2.561-6.168-5.64-6.168zm0 1.742c1.928 0 3.916 2.13 3.914 4.417-.002 2.286-1.987 4.418-3.914 4.418s-3.922-2.132-3.923-4.418c-.001-2.287 1.994-4.417 3.923-4.417z" transform="translate(-407 -549)"/>
        </g>
    </g>
</svg>