<?xml version="1.0" standalone="no"?>
<!DOCTYPE svg PUBLIC "-//W3C//DTD SVG 1.1//EN" "http://www.w3.org/Graphics/SVG/1.1/DTD/svg11.dtd" >
<svg xmlns="http://www.w3.org/2000/svg">
<metadata>Generated by IcoMoon</metadata>
<defs>
<font id="icomoon" horiz-adv-x="1024">
<font-face units-per-em="1024" ascent="960" descent="-64" />
<missing-glyph horiz-adv-x="1024" />
<glyph unicode="&#x20;" horiz-adv-x="512" d="" />
<glyph unicode="&#xe900;" glyph-name="calendar" horiz-adv-x="1088" d="M947.035 865.974h-143.031v51.642c0 23.455-21.122 42.384-47.294 42.384s-47.294-18.929-47.294-42.384v-51.642h-344.376v51.642c0 23.455-21.122 42.384-47.294 42.384s-47.294-18.929-47.294-42.384v-51.642h-129.486c-77.829 0-140.965-56.58-140.965-126.328v-677.317c0-69.748 63.136-126.328 140.965-126.328h806.071c77.829 0 140.965 56.58 140.965 126.328v677.317c0 69.542-63.365 126.328-140.965 126.328zM140.506 756.557h129.486v-53.55c0-26.658 21.122-48.172 47.294-48.172s47.294 21.514 47.294 48.172v53.55h344.376v-53.55c0-26.658 21.122-48.172 47.294-48.172s47.294 21.514 47.294 48.172v53.55h143.031c25.484 0 46.146-21.046 46.146-47.002v-154.57h-898.134v154.57c0 25.957 20.663 47.002 45.917 47.002zM947.035 32.343h-806.53c-25.484 0-46.146 15.845-46.146 35.388v390.676h898.595v-390.676c0.228-19.543-20.435-35.388-45.919-35.388z" />
<glyph unicode="&#xe901;" glyph-name="campaign" horiz-adv-x="1243" d="M1110.835 669.386l-58.93 22.438v207.924c0.143 20.845-10.408 40.262-27.851 51.255s-39.264 11.976-57.598 2.595l-539.212-273.741h-220.988c-113.912 0-206.256-93.76-206.256-209.42v-46.371c0.412-103.782 75.624-191.603 176.791-206.428v-273.741h117.86v272.245h132.593l539.212-273.741c18.334-9.381 40.154-8.398 57.598 2.595s27.995 30.411 27.851 51.255v222.882l58.93 22.438c79.699 31.395 132.318 109.159 132.593 195.957v35.9c-0.275 86.798-52.894 164.562-132.593 195.957zM117.86 425.562v44.876c0 49.568 39.576 89.751 88.395 89.751h176.791v-224.378h-176.791c-48.819 0-88.395 40.183-88.395 89.751v0zM934.045 91.987l-433.137 219.891v272.245l433.137 219.891v-712.027zM1125.568 437.529c0.108-36.964-22.114-70.215-55.984-83.768l-17.679-5.983v216.899l17.679-5.983c33.87-13.553 56.092-46.804 55.984-83.768v-37.396z" />
<glyph unicode="&#xe902;" glyph-name="card" horiz-adv-x="1280" d="M1075.485 960h-870.969c-113.052-0.157-204.594-91.89-204.516-204.942v-568.889c-0.079-113.052 91.463-204.785 204.516-204.942h870.969c113.052 0.157 204.594 91.89 204.515 204.942v568.889c0.079 113.052-91.463 204.785-204.515 204.942v0zM204.516 895.858h870.969c37.292-0.038 73.039-14.898 99.368-41.307s41.081-62.201 41.005-99.493v-4.836h-1152.001v4.836c-0.075 37.341 14.715 73.176 41.106 99.594s62.211 41.244 99.552 41.206zM1075.485 45.369h-870.969c-37.292 0.038-73.039 14.898-99.368 41.307s-41.081 62.201-41.005 99.493v369.778h1152.001v-369.778c0.075-37.341-14.715-73.176-41.106-99.594s-62.211-41.244-99.552-41.206z" />
<glyph unicode="&#xe903;" glyph-name="conversion" d="M512 960c-52.384 0-512-5.376-512-192 0-24 7.808-44.928 21.184-63.296l0.256-0.704 362.56-448v-256c0-35.328 57.312-64 128-64s128 28.672 128 64v256l362.56 448 0.256 0.704c13.376 18.368 21.184 39.296 21.184 63.296 0 186.624-459.616 192-512 192zM512 640c-247.424 0-448 57.312-448 128s200.576 128 448 128c247.456 0 448-57.312 448-128s-200.544-128-448-128z" />
<glyph unicode="&#xe904;" glyph-name="eye-slash" horiz-adv-x="1103" d="M548.883 200.155l62.373-90.22c-19.902-1.9-39.881-2.857-59.871-2.857-229.379 0-430.709 123.963-538.66 309.438-16.966 29.15-16.966 65.328 0 94.479 45.993 79.023 108.962 146.887 183.841 198.764l109.276-158.060c-9.594-27.503-14.832-57.097-14.832-87.944 0-144.873 115.13-262.239 257.874-263.6zM1090.045 416.516c-60.627-104.167-150.763-188.922-258.796-243.228l0.021-0.029 79.396-114.757c14.55-21.052 9.496-50.051-11.296-64.783l-25.1-17.795c-20.792-14.732-49.433-9.615-63.983 11.437l-618.182 881.649c-14.55 21.052-9.496 50.051 11.296 64.783l25.099 17.795c20.792 14.732 49.433 9.615 63.984-11.437l97.714-140.765c51.447 13.726 105.485 21.046 161.188 21.046 229.38 0 430.709-123.963 538.66-309.438 16.964-29.15 16.964-65.327 0-94.477zM811.761 463.754c0 145.722-116.476 263.631-260.376 263.631-34.345 0-67.116-6.732-97.122-18.943l36.948-52.451c49.527 15.839 105.383 11.947 153.928-14.364h-0.057c-45.279 0-81.98-37.16-81.98-83.005 0-45.798 36.657-83.005 81.98-83.005 45.279 0 81.98 37.16 81.98 83.005v0.058c35.346-66.858 31.23-151.033-15.795-215.072v-0.019l36.977-52.457c39.577 46.234 63.516 106.571 63.516 172.622zM501.634 268.499l-148.433 214.698c-9.599-101.55 56.122-190.655 148.433-214.698z" />
<glyph unicode="&#xe905;" glyph-name="Impression-goal" d="M982.289 489.711h-65.695c-20.118 191.465-171.419 342.766-362.884 362.884v65.695c0 23.036-18.675 41.711-41.711 41.711s-41.711-18.675-41.711-41.711v-65.695c-191.465-20.118-342.766-171.419-362.884-362.884h-65.695c-23.036 0-41.711-18.675-41.711-41.711s18.675-41.711 41.711-41.711h65.695c20.118-191.465 171.419-342.766 362.884-362.884v-65.695c0-23.036 18.675-41.711 41.711-41.711s41.711 18.675 41.711 41.711v65.695c191.465 20.118 342.766 171.419 362.884 362.884h65.695c23.036 0 41.711 18.675 41.711 41.711s-18.675 41.711-41.711 41.711zM553.711 127.87v172.057c0 23.036-18.675 41.711-41.711 41.711s-41.711-18.675-41.711-41.711v-172.057c-144.974 19.401-259.018 133.446-278.42 278.42h172.057c23.036 0 41.711 18.675 41.711 41.711s-18.675 41.711-41.711 41.711h-172.057c19.401 144.974 133.446 259.018 278.42 278.42v-172.057c0-23.036 18.675-41.711 41.711-41.711s41.711 18.675 41.711 41.711v172.057c144.974-19.401 259.018-133.446 278.42-278.42h-172.057c-23.036 0-41.711-18.675-41.711-41.711s18.675-41.711 41.711-41.711h172.057c-19.401-144.974-133.446-259.018-278.42-278.42v0z" />
<glyph unicode="&#xe906;" glyph-name="KPI" d="M507.609 431.431l516.391-80.048c-19.427-96.782-66.645-189.072-141.798-263.966-200.13-199.406-524.078-201.821-727.375-7.465v0l352.782 351.479zM216.938 177.876l-30.958-30.833-85.212 0.026c-7.453 10.061-14.593 20.343-21.212 30.833v0l137.381-0.026zM283.309 244.007l-30.945-30.846-193.134 0.052c-5.329 10.126-10.45 20.395-15.062 30.794v0h239.14zM20.117 310.216l329.577-0.065-30.997-30.859-288.508 0.026c-3.674 10.217-7.075 20.486-10.072 30.898v0zM416.078 376.296l-30.984-30.872-373.759 0.013c-2.176 10.243-4.078 20.551-5.603 30.859v0h410.345zM482.476 442.466l-30.984-30.898-449.954 0.013c-0.873 10.295-1.342 20.59-1.537 30.885v0h482.476zM477.081 508.61l4.795-30.833-481.524-0.026c0.456 10.321 1.147 20.59 2.215 30.82v0l474.515 0.039zM466.736 574.754l4.834-30.872h-463.896c1.772 10.347 3.883 20.642 6.293 30.885v0l452.769-0.013zM456.404 640.924l4.834-30.872-437.524-0.013c3.257 10.425 6.906 20.694 10.84 30.911v0l421.85-0.026zM65.72 707.146l380.339-0.026 4.834-30.833-401.277-0.026c4.964 10.464 10.371 20.72 16.104 30.885v0zM435.687 773.316l4.847-30.846h-353.264c7.062 10.503 14.645 20.758 22.58 30.859v0l325.837-0.013zM425.394 839.513l4.821-30.872-290.007 0.013c3.87 4.076 7.635 8.179 11.661 12.177 6.45 6.465 13.147 12.593 19.87 18.668v0l253.655 0.013zM415.049 905.683l4.756-30.859h-204.195c15.7 11.268 31.805 21.576 48.404 30.859v0h151.036zM406.606 960l2.919-18.993-68.469-0.026c21.472 7.815 43.349 14.112 65.551 19.019v0z" />
<glyph unicode="&#xe907;" glyph-name="Objective" horiz-adv-x="805" d="M54.161 853.501c29.912 0 54.161 23.841 54.161 53.249s-24.249 53.249-54.161 53.249c-29.912 0-54.161-23.841-54.161-53.249s24.249-53.249 54.161-53.249zM12.629 854.112c0 0 15.786-13.183 43.104-13.183s41.788 11.745 41.788 11.745v-916.674h-86.709l1.816 918.112zM633.988 943.964c158.413 0 169.84-27.483 170.542-32.98l-0.009-438.618c-0.674 2.236-13.295 34.659-178.273 34.659-170.87 0-178.318-39.874-178.318-39.874s-5.132-42.835-163.056-42.835c-157.924 0-171.175 42.835-171.175 42.835s-0.069 193.53-0.108 315.799l-0.026 88.708c1.987 2.241 3.779 4.638 5.376 7.179 21.187-7.059 74.823-12.464 178.903-12.464 150.46 0 160.604 24.601 161.288 27.994 0.164 3.612 4.686 49.597 174.857 49.597z" />
<glyph unicode="&#xe908;" glyph-name="report" horiz-adv-x="890" d="M782.503 954.252c-5.397 4.047-12.142 6.746-18.888 5.397-2.698 0-5.397 0-8.095-1.349l-617.908 1.349c0 0 0 0 0 0-2.698 0-5.397 0-6.746-1.349-74.203-8.095-130.867-71.505-130.867-147.057v-813.534c0-10.793 6.746-21.586 17.539-25.634s22.935-1.349 29.681 5.397l87.694 86.345 87.694-87.694c5.397-5.397 12.142-8.095 20.237-8.095s14.841 2.698 20.237 8.095l87.694 87.694 87.694-87.694c5.397-5.397 12.142-8.095 20.237-8.095s14.841 2.698 20.237 8.095l87.694 87.694 86.345-86.345c8.095-8.095 20.237-10.793 29.681-5.397 10.793 4.047 17.539 14.841 17.539 25.634v661.080h161.897c14.841 0 28.332 12.142 28.332 28.332v125.47c-2.698 66.108-47.22 124.121-107.931 141.66zM643.541 66.516l-59.362 59.362c-10.793 10.793-28.332 10.793-39.125 0l-87.694-87.694-87.694 87.694c-5.397 5.397-12.142 8.095-20.237 8.095s-14.841-2.698-20.237-8.095l-87.694-87.694-87.694 87.694c-5.397 5.397-12.142 8.095-20.237 8.095-6.746 0-14.841-2.698-20.237-8.095l-59.362-59.362v746.076c0 48.569 37.776 89.043 84.996 91.742 1.349 0 1.349 0 2.698 0l526.166-1.349c-14.841-24.285-24.285-55.315-24.285-90.393v-118.725c0-2.698-1.349-4.047-1.349-6.746v-620.606h1.349zM538.308 298.569c14.841 0 28.332-12.142 28.332-28.332s-13.491-28.332-28.332-28.332v0h-383.157c-16.19 0-28.332 12.142-28.332 28.332s13.491 28.332 28.332 28.332v0zM489.739 444.276c16.19 0 28.332-12.142 28.332-28.332s-13.491-28.332-28.332-28.332v0h-334.588c-16.19 0-28.332 12.142-28.332 28.332s13.491 28.332 28.332 28.332v0zM369.665 587.285c16.19 0 28.332-12.142 28.332-28.332s-13.491-28.332-28.332-28.332v0h-214.514c-16.19 0-28.332 12.142-28.332 28.332s13.491 28.332 28.332 28.332v0zM538.308 730.295c14.841 0 28.332-12.142 28.332-28.332s-13.491-28.332-28.332-28.332v0h-383.157c-16.19 0-28.332 12.142-28.332 28.332s13.491 28.332 28.332 28.332v0zM758.219 904.334c43.173-8.095 75.552-45.871 75.552-90.393v-98.487h-133.565v98.487c0 18.888 4.047 79.599 58.013 90.393z" />
<glyph unicode="&#xe909;" glyph-name="Shape" d="M982.289 489.711h-65.695c-20.118 191.465-171.419 342.766-362.884 362.884v65.695c0 23.036-18.675 41.711-41.711 41.711s-41.711-18.675-41.711-41.711v-65.695c-191.465-20.118-342.766-171.419-362.884-362.884h-65.695c-23.036 0-41.711-18.675-41.711-41.711s18.675-41.711 41.711-41.711h65.695c20.118-191.465 171.419-342.766 362.884-362.884v-65.695c0-23.036 18.675-41.711 41.711-41.711s41.711 18.675 41.711 41.711v65.695c191.465 20.118 342.766 171.419 362.884 362.884h65.695c23.036 0 41.711 18.675 41.711 41.711s-18.675 41.711-41.711 41.711zM553.711 127.87v172.057c0 23.036-18.675 41.711-41.711 41.711s-41.711-18.675-41.711-41.711v-172.057c-144.974 19.401-259.018 133.446-278.42 278.42h172.057c23.036 0 41.711 18.675 41.711 41.711s-18.675 41.711-41.711 41.711h-172.057c19.401 144.974 133.446 259.018 278.42 278.42v-172.057c0-23.036 18.675-41.711 41.711-41.711s41.711 18.675 41.711 41.711v172.057c144.974-19.401 259.018-133.446 278.42-278.42h-172.057c-23.036 0-41.711-18.675-41.711-41.711s18.675-41.711 41.711-41.711h172.057c-19.401-144.974-133.446-259.018-278.42-278.42v0z" />
<glyph unicode="&#xe90a;" glyph-name="arrow-down" d="M0 448c0-282.839 229.161-512 512-512s512 229.161 512 512c0 282.839-229.161 512-512 512s-512-229.161-512-512zM307.429 499.776l141.935-147.097v355.762c0 25.913 20.977 46.759 47.050 46.759h31.367c26.074 0 47.050-20.847 47.050-46.759v-355.762l141.935 147.097c18.232 18.899 48.619 19.288 67.243 0.779l21.369-21.431c18.428-18.314 18.428-47.928 0-66.048l-259.954-258.541c-18.428-18.314-48.227-18.314-66.459 0l-260.346 258.541c-18.428 18.314-18.428 47.929 0 66.048l21.369 21.431c18.82 18.509 49.207 18.119 67.439-0.779v0z" />
<glyph unicode="&#xe90b;" glyph-name="search" d="M1010.074 74.686l-199.414 199.38c-9 9-21.202 13.999-34.002 13.999h-32.603c55.205 70.593 88.007 159.384 88.007 255.975 0 229.777-186.214 415.959-416.030 415.959s-416.031-186.182-416.031-415.959c0-229.778 186.214-415.96 416.031-415.96 96.607 0 185.413 32.797 256.018 87.992v-32.597c0-12.799 5.001-24.997 14.001-33.996l199.415-199.381c18.801-18.798 49.203-18.798 67.805 0l56.604 56.594c18.801 18.799 18.801 49.196 0.2 67.994zM416.031 288.066c-141.41 0-256.019 114.389-256.019 255.975 0 141.386 114.409 255.975 256.019 255.975 141.41 0 256.018-114.389 256.018-255.975 0-141.386-114.408-255.975-256.018-255.975z" />
<glyph unicode="&#xe90c;" glyph-name="caret-left" d="M804.571 890.999v-885.999c0-61.35-74.74-92.073-118.45-48.693l-446.37 443c-27.097 26.891-27.097 70.495 0 97.385l446.37 443c43.71 43.383 118.45 12.657 118.45-48.693z" />
<glyph unicode="&#xe90d;" glyph-name="caret-down" d="M899.624 704h-775.249c-53.681 0-80.564-65.398-42.606-103.644l387.625-390.574c23.529-23.709 61.683-23.709 85.212 0l387.625 390.574c37.96 38.246 11.075 103.644-42.606 103.644z" />
<glyph unicode="&#xe90e;" glyph-name="eye" d="M1012.184 491.592c-100.24 171.158-287.189 285.551-500.184 285.551-213.084 0-399.992-114.474-500.184-285.551-15.755-26.9-15.755-60.285 0-87.185 100.24-171.156 287.189-285.549 500.184-285.549 213.084 0 399.992 114.474 500.184 285.551 15.755 26.899 15.755 60.284 0 87.184zM512 204.72c-133.621 0-241.777 108.809-241.777 243.28 0 134.451 108.135 243.28 241.777 243.28 133.621 0 241.777-108.807 241.777-243.28 0-134.451-108.135-243.28-241.777-243.28zM696.889 448c0-102.746-82.777-186.037-184.889-186.037s-184.889 83.291-184.889 186.037c0 31.676 7.877 61.498 21.753 87.604l-0.002-0.057c0-42.307 34.085-76.603 76.131-76.603s76.131 34.297 76.131 76.603c0 42.307-34.085 76.604-76.131 76.604l-0.057-0.002c25.945 13.962 55.582 21.888 87.063 21.888 102.112 0 184.889-83.291 184.889-186.037z" />
<glyph unicode="&#xe90f;" glyph-name="notification" d="M825.117 285.525v264.875c0 147.911-102.4 271.701-240.754 304.469v32.768c0 40.050-32.313 72.363-72.363 72.363s-72.363-32.313-72.363-72.363v-32.768c-138.354-32.768-240.754-156.558-240.754-304.469v-264.875l-96.483-96.484v-48.242h819.2v48.242l-96.483 96.484zM409.6 38.4h204.8c0-56.603-45.797-102.4-102.4-102.4s-102.4 45.797-102.4 102.4v0z" />
<glyph unicode="&#xe910;" glyph-name="arrow-up" d="M0 448c0 282.839 229.161 512 512 512s512-229.161 512-512c0-282.839-229.161-512-512-512s-512 229.161-512 512zM307.429 396.224l141.935 147.097v-355.762c0-25.913 20.977-46.759 47.050-46.759h31.367c26.074 0 47.050 20.847 47.050 46.759v355.762l141.935-147.097c18.232-18.899 48.619-19.288 67.243-0.779l21.369 21.431c18.428 18.314 18.428 47.928 0 66.048l-259.954 258.541c-18.428 18.314-48.227 18.314-66.459 0l-260.346-258.541c-18.428-18.314-18.428-47.929 0-66.048l21.369-21.431c18.82-18.509 49.207-18.119 67.439 0.779v0z" />
<glyph unicode="&#xe911;" glyph-name="click" d="M789.669 36.44l2.856-84.879c0.26-6.945-5.322-12.989-12.462-13.118l-397.096-2.443c-7.14 0-12.981 5.659-12.981 12.732l-0.13 104.813-220.811 404.462c-45.434 83.207 41.67 155.097 120.206 89.252l91.907-76.906 1.298 415.522c0.26 98.897 150.712 98.769 150.712 0v-192.264c46.732 37.424 122.673 10.803 124.62-54.4 44.006 35.109 115.793 13.503 123.971-45.012 47.122 38.839 127.995 10.803 125.658-57.229l-9.606-271.871c0-1.543-0.389-2.958-0.909-4.244l-87.234-224.415z" />
<glyph unicode="&#xe912;" glyph-name="pause" d="M329.143-64h-219.429c-60.571 0-109.714 49.143-109.714 109.714v804.571c0 60.571 49.143 109.714 109.714 109.714h219.429c60.571 0 109.714-49.143 109.714-109.714v-804.571c0-60.571-49.143-109.714-109.714-109.714zM1024 45.714v804.571c0 60.571-49.143 109.714-109.714 109.714h-219.429c-60.571 0-109.714-49.143-109.714-109.714v-804.571c0-60.571 49.143-109.714 109.714-109.714h219.429c60.571 0 109.714 49.143 109.714 109.714z" />
<glyph unicode="&#xe913;" glyph-name="Rectangle" d="M0 960h1024v-1024h-1024v1024z" />
<glyph unicode="&#xe914;" glyph-name="bulb" d="M512 960c-12.674 0-22.947-10.385-22.947-23.197v-92.787c0-12.812 10.273-23.197 22.947-23.197s22.947 10.385 22.947 23.197v92.787c0 12.812-10.273 23.197-22.947 23.197zM187.519 824.082c-5.873 0-11.654-2.356-16.135-6.887-8.961-9.058-8.961-23.561 0-32.62l64.897-65.603c8.958-9.058 23.307-9.058 32.268 0 8.962 9.058 8.962 23.561 0 32.62l-64.896 65.603c-4.48 4.53-10.263 6.887-16.134 6.887zM836.481 824.082c-5.871 0-11.652-2.356-16.134-6.887l-64.896-65.603c-8.962-9.059-8.962-23.562 0-32.62s23.308-9.058 32.268 0l64.897 65.603c8.961 9.059 8.961 23.562 0 32.62-4.482 4.53-10.261 6.887-16.135 6.887zM512 751.23c-139.92 0-275.361-109.737-275.361-264.949 0-189.921 132.611-238.224 147.72-361.361h255.283c15.109 123.137 147.72 171.44 147.72 361.361 0 155.212-135.441 264.949-275.361 264.949zM486.543 691.789c14.954 0.716 27.638-6.965 27.249-22.109 0.379-12.146-10.215-23.542-22.229-23.922-85.594-10.092-151.664-83.424-151.664-172.888 0-17.817 2.618-34.927 7.529-51.105 4.781-11.908-2.536-27.079-14.7-30.809s-26.475 4.813-29.041 17.397c-6.224 20.476-9.681 41.99-9.681 64.516 0 112.705 84.211 206.145 192.537 218.918zM53.064 496.067c-12.674 0-22.947-10.385-22.947-23.197s10.273-23.197 22.947-23.197h91.787c12.674 0 22.947 10.385 22.947 23.197s-10.273 23.197-22.947 23.197h-91.787zM879.148 496.067c-12.674 0-22.947-10.385-22.947-23.197s10.273-23.197 22.947-23.197h91.787c12.674 0 22.947 10.385 22.947 23.197s-10.273 23.197-22.947 23.197h-91.787zM385.793 75.18v-23.197c0-26.654 21.679-46.393 45.894-46.393h34.42v-23.197c0-25.702 20.469-46.393 45.894-46.393s45.894 20.691 45.894 46.393v23.197h34.42c24.215 0 45.894 19.739 45.894 46.393v23.197h-252.415z" />
<glyph unicode="&#xe915;" glyph-name="check" horiz-adv-x="1280" d="M434.744 24.237l-416 416c-24.992 24.993-24.992 65.515 0 90.51l90.508 90.51c24.992 24.995 65.517 24.995 90.51 0l280.237-280.235 600.237 600.234c24.993 24.992 65.518 24.992 90.51 0l90.508-90.51c24.992-24.993 24.992-65.515 0-90.51l-735.999-736.002c-24.996-24.993-65.518-24.993-90.51 0.002v0z" />
<glyph unicode="&#xe916;" glyph-name="download" horiz-adv-x="931" d="M335.503 960h203.636c33.854 0 61.091-27.236 61.091-61.091v-427.636h223.236c45.309 0 67.964-54.727 35.891-86.8l-387.163-387.418c-19.091-19.091-50.4-19.091-69.491 0l-387.672 387.418c-32.073 32.073-9.418 86.8 35.891 86.8h223.491v427.636c0 33.855 27.237 61.091 61.091 61.091z" />
<glyph unicode="&#xe917;" glyph-name="circle" d="M1024 448c0-282.77-229.23-512-512-512s-512 229.23-512 512c0 282.77 229.23 512 512 512s512-229.23 512-512z" />
<glyph unicode="&#xe918;" glyph-name="signal" horiz-adv-x="1161" d="M76.008 448.001c-41.978 0-76.008-38.221-76.008-85.336v-341.324c0-47.131 34.013-85.336 76.008-85.336h76.008c41.978 0 76.008 38.221 76.008 85.336v341.324c0 47.131-34.013 85.336-76.008 85.336h-76.008zM552.473 704.001c-41.978 0-76.008-38.216-76.008-85.309v-597.382c0-47.115 34.013-85.309 76.008-85.309h76.008c41.978 0 76.008 38.216 76.008 85.309v597.382c0 47.115-34.013 85.309-76.008 85.309h-76.008zM1022.132 960c-38.218 0-69.201-38.197-69.201-85.325v-853.347c0-47.123 30.967-85.325 69.201-85.325h69.201c38.218 0 69.201 38.197 69.201 85.325v853.347c0 47.123-30.967 85.325-69.201 85.325h-69.201z" />
</font>
</defs>
</svg>
